<?xml version="1.0" encoding="UTF-8" standalone="no"?>
<!-- Created with Inkscape (http://www.inkscape.org/) -->

<svg
   xmlns:dc="http://purl.org/dc/elements/1.1/"
   xmlns:cc="http://creativecommons.org/ns#"
   xmlns:rdf="http://www.w3.org/1999/02/22-rdf-syntax-ns#"
   xmlns:svg="http://www.w3.org/2000/svg"
   xmlns="http://www.w3.org/2000/svg"
   xmlns:sodipodi="http://sodipodi.sourceforge.net/DTD/sodipodi-0.dtd"
   xmlns:inkscape="http://www.inkscape.org/namespaces/inkscape"
   width="744.09448819"
   height="1052.3622047"
   id="svg2"
   version="1.1"
   inkscape:version="0.48.2 r9819"
   sodipodi:docname="New document 1">
  <defs
     id="defs4" />
  <sodipodi:namedview
     id="base"
     pagecolor="#ffffff"
     bordercolor="#666666"
     borderopacity="1.0"
     inkscape:pageopacity="0.0"
     inkscape:pageshadow="2"
     inkscape:zoom="1.4"
     inkscape:cx="448.50133"
     inkscape:cy="797.41797"
     inkscape:document-units="px"
     inkscape:current-layer="layer1"
     showgrid="false"
     inkscape:window-width="1920"
     inkscape:window-height="1015"
     inkscape:window-x="-4"
     inkscape:window-y="-4"
     inkscape:window-maximized="1" />
  <metadata
     id="metadata7">
    <rdf:RDF>
      <cc:Work
         rdf:about="">
        <dc:format>image/svg+xml</dc:format>
        <dc:type
           rdf:resource="http://purl.org/dc/dcmitype/StillImage" />
        <dc:title></dc:title>
      </cc:Work>
    </rdf:RDF>
  </metadata>
  <g
     inkscape:label="Layer 1"
     inkscape:groupmode="layer"
     id="layer1">
    <rect
       style="color:#000000;fill:#ffffff;fill-opacity:1;fill-rule:nonzero;stroke:#000000;stroke-width:1.54347754000000000;stroke-linecap:butt;stroke-linejoin:miter;stroke-miterlimit:4;stroke-opacity:1;stroke-dasharray:none;stroke-dashoffset:0;marker:none;visibility:visible;display:inline;overflow:visible;enable-background:accumulate"
       id="rect2985"
       width="643.93384"
       height="365.13174"
       x="58.860588"
       y="41.471226" />
    <rect
       style="color:#000000;fill:#999999;fill-opacity:1;fill-rule:nonzero;stroke:#000000;stroke-width:1;stroke-linecap:butt;stroke-linejoin:miter;stroke-miterlimit:4;stroke-opacity:1;stroke-dasharray:none;stroke-dashoffset:0;marker:none;visibility:visible;display:inline;overflow:visible;enable-background:accumulate"
       id="rect2987"
       width="372.14285"
       height="27.857143"
       x="202.14285"
       y="358.79074" />
    <rect
       style="color:#000000;fill:#f2f2f2;fill-opacity:1;fill-rule:nonzero;stroke:#000000;stroke-width:0.7641964;stroke-linecap:butt;stroke-linejoin:miter;stroke-miterlimit:4;stroke-opacity:1;stroke-dasharray:none;stroke-dashoffset:0;marker:none;visibility:visible;display:inline;overflow:visible;enable-background:accumulate"
       id="rect2989"
       width="339.52167"
       height="68.777679"
       x="215.59639"
       y="57.958565"
       ry="11.462946" />
    <rect
       style="color:#000000;fill:#ff00ff;fill-opacity:1;fill-rule:nonzero;stroke:#000000;stroke-width:0.7641964;stroke-linecap:butt;stroke-linejoin:miter;stroke-miterlimit:4;stroke-opacity:1;stroke-dasharray:none;stroke-dashoffset:0;marker:none;visibility:visible;display:inline;overflow:visible;enable-background:accumulate"
       id="rect2994"
       width="70.415245"
       height="44.214222"
       x="256.35205"
       y="72.880058"
       ry="11.462946" />
    <rect
       style="color:#000000;fill:#ffff00;fill-opacity:1;fill-rule:nonzero;stroke:#000000;stroke-width:0.7641964;stroke-linecap:butt;stroke-linejoin:miter;stroke-miterlimit:4;stroke-opacity:1;stroke-dasharray:none;stroke-dashoffset:0;marker:none;visibility:visible;display:inline;overflow:visible;enable-background:accumulate"
       id="rect2996"
       width="69.323532"
       height="45.305931"
       x="442.67188"
       y="71.242493"
       ry="11.462946" />
    <path
       style="fill:none;stroke:#000000;stroke-width:0.7641964px;stroke-linecap:butt;stroke-linejoin:miter;stroke-opacity:1"
       d="m 280.00723,158.39581 c 0,-2.91122 0,-5.82244 0,-8.73367 0,-0.20046 -0.0219,-2.16145 0,-2.18342 0.12866,-0.12866 0.41719,0.12866 0.54585,0 0.12866,-0.12866 0,-0.3639 0,-0.54586 0,-0.37966 -0.0987,-2.53187 0,-2.72927 0.11508,-0.23015 0.43078,-0.3157 0.54585,-0.54585 0.0718,-0.14353 0,-1.89798 0,-2.18342 0,-0.3639 0,-1.45561 0,-1.09171 0,0.36391 0,1.45562 0,1.09171 0,-0.54585 0,-1.09171 0,-1.63756 0,-0.18196 0,-0.3639 0,-0.54586 0,-0.18195 0.12866,-0.41719 0,-0.54585 -0.25732,-0.25732 -0.83438,0.25731 -1.0917,0 -0.25732,-0.25732 0.25732,-0.8344 0,-1.09171 -0.18269,-0.18269 -0.90902,0.18269 -1.09171,0 -0.12866,-0.12866 0.12866,-0.4172 0,-0.54586 -0.25732,-0.25732 -0.8344,0.25732 -1.09171,0 -0.0248,-0.0248 0,-2.4719 0,-2.72927 0,-0.18195 -0.12866,-0.4172 0,-0.54585 0.12865,-0.12866 0.41719,0.12865 0.54585,0 0.12866,-0.12866 0.18196,-0.54586 0,-0.54586 -0.25732,0 -0.3639,0.3639 -0.54585,0.54586 1.68881,-0.61208 3.21043,-0.54586 4.91269,-0.54586 0.18195,0 0.3639,0 0.54585,0 0.18196,0 0.38312,-0.0814 0.54586,0 0.23015,0.11507 0.3157,0.43078 0.54585,0.54586 0.29307,0.14653 0.79864,-0.14654 1.09171,0 0.23016,0.11507 0.3157,0.43078 0.54585,0.54585 0.16613,0.0831 1.39174,0 1.63757,0 1.09171,0 2.18342,0 3.27512,0 0.18196,0 0.36391,0 0.54586,0 0.18195,0 0.38312,-0.0814 0.54585,0 0.23016,0.11508 0.31571,0.43078 0.54586,0.54586 0.14353,0.0718 1.89798,0 2.18342,0 0.90976,0 1.81952,0 2.72927,0 0.18196,0 0.3639,0 0.54586,0 0.18195,0 0.38311,-0.0814 0.54585,0 0.23015,0.11507 0.3157,0.43078 0.54586,0.54585 0.29612,0.14806 2.03406,-0.14936 2.18341,0 0.12866,0.12866 -0.12866,0.4172 0,0.54586 0.25732,0.25732 0.8344,-0.25732 1.09171,0 0.12866,0.12866 -0.12866,0.41719 0,0.54585 0.12866,0.12866 0.38312,-0.0814 0.54586,0 0.23015,0.11508 0.3157,0.43078 0.54585,0.54585 0.68664,0.34332 1.09171,-0.78395 1.09171,0.54586 0,4.36683 0,8.73367 0,13.10051 -5.09464,0 -10.18929,0 -15.28392,0 -1.45562,0 -2.91123,0 -4.36684,0 -0.18195,0 -0.4172,0.12866 -0.54586,0 -0.12865,-0.12866 0.12866,-0.41719 0,-0.54585 -0.25731,-0.25732 -0.76622,0.16274 -1.09171,0 -0.23015,-0.11508 -0.3157,-0.43078 -0.54585,-0.54586 -0.32549,-0.16275 -0.8344,0.25732 -1.09171,0 -0.12866,-0.12866 0.12865,-0.4172 0,-0.54585 -0.7278,-0.72781 -0.54586,0.90975 -0.54586,-0.54586"
       id="path3016"
       inkscape:connector-curvature="0" />
    <text
       xml:space="preserve"
       style="font-size:40px;font-style:normal;font-weight:normal;line-height:125%;letter-spacing:0px;word-spacing:0px;fill:#000000;fill-opacity:1;stroke:none;font-family:Sans"
       x="247.14285"
       y="110.93361"
       id="text3018"
       sodipodi:linespacing="125%"><tspan
         sodipodi:role="line"
         id="tspan3020"
         x="247.14285"
         y="110.93361" /></text>
    <text
       xml:space="preserve"
       style="font-size:30.56785583px;font-style:normal;font-weight:normal;line-height:125%;letter-spacing:0px;word-spacing:0px;fill:#000000;fill-opacity:1;stroke:none;font-family:Sans"
       x="219.24275"
       y="104.1772"
       id="text3022"
       sodipodi:linespacing="125%"><tspan
         sodipodi:role="line"
         id="tspan3024"
         x="219.24275"
         y="104.1772">55</tspan></text>
    <text
       xml:space="preserve"
       style="font-size:30.56785583px;font-style:normal;font-weight:normal;line-height:125%;letter-spacing:0px;word-spacing:0px;fill:#000000;fill-opacity:1;stroke:none;font-family:Sans"
       x="518.18768"
       y="103.81036"
       id="text3026"
       sodipodi:linespacing="125%"><tspan
         sodipodi:role="line"
         id="tspan3028"
         x="518.18768"
         y="103.81036">95</tspan></text>
    <text
       xml:space="preserve"
       style="font-size:40px;font-style:normal;font-weight:normal;line-height:125%;letter-spacing:0px;word-spacing:0px;fill:#000000;fill-opacity:1;stroke:none;font-family:Sans"
       x="346.71429"
       y="107.6479"
       id="text3030"
       sodipodi:linespacing="125%"><tspan
         sodipodi:role="line"
         id="tspan3032"
         x="346.71429"
         y="107.6479">9:25</tspan></text>
  </g>
</svg>
